<mxfile host="app.diagrams.net" modified="2022-11-26T01:58:44.218Z" agent="5.0 (Windows NT 10.0; Win64; x64) AppleWebKit/537.36 (KHTML, like Gecko) Chrome/107.0.0.0 Safari/537.36" etag="nodtvAMSe86xTalhFJuw" version="20.6.0" type="github">
  <diagram id="AtImyOTAmfLTAfOJhqK3" name="第 1 页">
    <mxGraphModel dx="1504" dy="654" grid="0" gridSize="10" guides="1" tooltips="1" connect="1" arrows="1" fold="1" page="1" pageScale="1" pageWidth="2000" pageHeight="5000" math="0" shadow="0">
      <root>
        <mxCell id="0" />
        <mxCell id="1" parent="0" />
        <mxCell id="4ycxMJ0RPmdJxaAEptit-6" style="edgeStyle=orthogonalEdgeStyle;rounded=0;orthogonalLoop=1;jettySize=auto;html=1;fontSize=18;" parent="1" source="4ycxMJ0RPmdJxaAEptit-1" target="4ycxMJ0RPmdJxaAEptit-5" edge="1">
          <mxGeometry relative="1" as="geometry" />
        </mxCell>
        <mxCell id="4ycxMJ0RPmdJxaAEptit-1" value="&lt;div style=&quot;text-align: left;&quot;&gt;&lt;span style=&quot;font-size: 18px; background-color: initial;&quot;&gt;exp_main&lt;/span&gt;&lt;/div&gt;&lt;div style=&quot;text-align: left;&quot;&gt;&lt;span style=&quot;font-size: 18px; background-color: initial;&quot;&gt;&lt;br&gt;&lt;/span&gt;&lt;/div&gt;&lt;div style=&quot;text-align: left;&quot;&gt;&lt;span style=&quot;font-size: 18px; background-color: initial;&quot;&gt;_init_()&lt;/span&gt;&lt;/div&gt;&lt;div style=&quot;text-align: left;&quot;&gt;&lt;span style=&quot;font-size: 18px; background-color: initial;&quot;&gt;model=_build_model()&lt;/span&gt;&lt;/div&gt;&lt;div style=&quot;text-align: left;&quot;&gt;&lt;span style=&quot;font-size: 18px; background-color: initial;&quot;&gt;&lt;br&gt;&lt;/span&gt;&lt;/div&gt;&lt;font style=&quot;font-size: 18px;&quot;&gt;&lt;div style=&quot;text-align: left;&quot;&gt;&lt;span style=&quot;background-color: initial;&quot;&gt;&lt;br&gt;&lt;/span&gt;&lt;/div&gt;&lt;div style=&quot;text-align: left;&quot;&gt;_build_model()&lt;/div&gt;&lt;div style=&quot;text-align: left;&quot;&gt;model=FEDformer.Model(args).float()&lt;/div&gt;&lt;div style=&quot;text-align: left;&quot;&gt;&lt;br&gt;&lt;/div&gt;&lt;div style=&quot;text-align: left;&quot;&gt;&lt;span style=&quot;background-color: initial;&quot;&gt;&lt;br&gt;&lt;/span&gt;&lt;/div&gt;&lt;div style=&quot;text-align: left;&quot;&gt;&lt;span style=&quot;background-color: initial;&quot;&gt;&lt;br&gt;&lt;/span&gt;&lt;/div&gt;&lt;div style=&quot;text-align: left;&quot;&gt;&lt;span style=&quot;background-color: initial;&quot;&gt;train()：&lt;/span&gt;&lt;/div&gt;&lt;div style=&quot;text-align: left;&quot;&gt;&lt;span style=&quot;background-color: initial;&quot;&gt;_get_data()&lt;/span&gt;&lt;/div&gt;&lt;div style=&quot;text-align: left;&quot;&gt;&lt;span style=&quot;background-color: initial;&quot;&gt;path=checkpoints&lt;/span&gt;&lt;/div&gt;&lt;div style=&quot;text-align: left;&quot;&gt;&lt;span style=&quot;background-color: initial;&quot;&gt;time_now&lt;/span&gt;&lt;/div&gt;&lt;div style=&quot;text-align: left;&quot;&gt;&lt;span style=&quot;background-color: initial;&quot;&gt;train_steps：训练步长&lt;/span&gt;&lt;/div&gt;&lt;div style=&quot;text-align: left;&quot;&gt;&lt;span style=&quot;background-color: initial;&quot;&gt;early_stopping:提早停止&lt;/span&gt;&lt;/div&gt;&lt;div style=&quot;text-align: left;&quot;&gt;&lt;span style=&quot;background-color: initial;&quot;&gt;model_optim:模型优化器&lt;br&gt;model_criterion:模型评估&lt;/span&gt;&lt;/div&gt;&lt;div style=&quot;text-align: left;&quot;&gt;&lt;span style=&quot;background-color: initial;&quot;&gt;use_map:是否使用自动混合精度训练，&lt;/span&gt;&lt;/div&gt;&lt;div style=&quot;text-align: left;&quot;&gt;&lt;span style=&quot;background-color: initial;&quot;&gt;防止梯度爆炸或消失&lt;/span&gt;&lt;/div&gt;&lt;div style=&quot;text-align: left;&quot;&gt;&lt;span style=&quot;background-color: initial;&quot;&gt;for epoch:默认10次&lt;/span&gt;&lt;/div&gt;&lt;div style=&quot;text-align: left;&quot;&gt;&lt;span style=&quot;background-color: initial;&quot;&gt;&lt;span style=&quot;white-space: pre;&quot;&gt; &lt;/span&gt;model.train():启用BN和D&lt;/span&gt;&lt;/div&gt;&lt;div style=&quot;text-align: left;&quot;&gt;&lt;span style=&quot;background-color: initial;&quot;&gt;&lt;span style=&quot;white-space: pre;&quot;&gt; &lt;/span&gt;for train_loader&lt;/span&gt;&lt;/div&gt;&lt;div style=&quot;text-align: left;&quot;&gt;&lt;span style=&quot;background-color: initial;&quot;&gt;&lt;span style=&quot;white-space: pre;&quot;&gt; &lt;/span&gt;&lt;span style=&quot;white-space: pre;&quot;&gt; &lt;/span&gt;zero_grad:清空batch权重&lt;br&gt;&lt;/span&gt;&lt;/div&gt;&lt;div style=&quot;text-align: left;&quot;&gt;&lt;span style=&quot;background-color: initial;&quot;&gt;&amp;nbsp; b_x,b_x_m,b_y,b_y_m&lt;/span&gt;&lt;/div&gt;&lt;div style=&quot;text-align: left;&quot;&gt;&lt;span style=&quot;background-color: initial;&quot;&gt;&amp;nbsp; dec_inp:解码器输入，0填充&lt;/span&gt;&lt;/div&gt;&lt;div style=&quot;text-align: left;&quot;&gt;&lt;span style=&quot;background-color: initial;&quot;&gt;&amp;nbsp; if 自动混合精度：...&lt;/span&gt;&lt;/div&gt;&lt;div style=&quot;text-align: left;&quot;&gt;&lt;span style=&quot;background-color: initial;&quot;&gt;&amp;nbsp; else:outputs=model()&lt;/span&gt;&lt;/div&gt;&lt;div style=&quot;text-align: left;&quot;&gt;&lt;span style=&quot;background-color: initial;&quot;&gt;&amp;nbsp;&amp;nbsp;&lt;span style=&quot;white-space: pre;&quot;&gt; &lt;/span&gt;&amp;nbsp; loss&lt;/span&gt;&lt;/div&gt;&lt;div style=&quot;text-align: left;&quot;&gt;&lt;span style=&quot;background-color: initial;&quot;&gt;&amp;nbsp; if 每百次迭代记录时间&lt;/span&gt;&lt;/div&gt;&lt;div style=&quot;text-align: left;&quot;&gt;&lt;span style=&quot;background-color: initial;&quot;&gt;&amp;nbsp; if 自动混合精度：...&lt;/span&gt;&lt;/div&gt;&lt;div style=&quot;text-align: left;&quot;&gt;&lt;span style=&quot;background-color: initial;&quot;&gt;&amp;nbsp; else:loss.backward(),optimizer.step()&lt;/span&gt;&lt;/div&gt;&lt;div style=&quot;text-align: left;&quot;&gt;&amp;nbsp;一个epoch结束后&lt;/div&gt;&lt;div style=&quot;text-align: left;&quot;&gt;&amp;nbsp;train_loss&lt;/div&gt;&lt;div style=&quot;text-align: left;&quot;&gt;&amp;nbsp;vali_loss&lt;/div&gt;&lt;div style=&quot;text-align: left;&quot;&gt;&amp;nbsp;test_loss&lt;/div&gt;&lt;div style=&quot;text-align: left;&quot;&gt;&amp;nbsp;if early_stopping&lt;/div&gt;&lt;div style=&quot;text-align: left;&quot;&gt;&amp;nbsp;adjust_learning_rate&lt;/div&gt;&lt;div style=&quot;text-align: left;&quot;&gt;best_model_path&lt;/div&gt;&lt;div style=&quot;text-align: left;&quot;&gt;model.load_state_dict()&lt;/div&gt;&lt;div style=&quot;text-align: left;&quot;&gt;return model&lt;/div&gt;&lt;div style=&quot;text-align: left;&quot;&gt;&lt;br&gt;&lt;/div&gt;&lt;div style=&quot;text-align: left;&quot;&gt;&lt;span style=&quot;background-color: initial;&quot;&gt;&amp;nbsp;&amp;nbsp;&lt;/span&gt;&lt;/div&gt;&lt;div style=&quot;text-align: left;&quot;&gt;&lt;span style=&quot;background-color: initial;&quot;&gt;&lt;br&gt;&lt;/span&gt;&lt;/div&gt;&lt;/font&gt;" style="rounded=0;whiteSpace=wrap;html=1;" parent="1" vertex="1">
          <mxGeometry x="473" y="233" width="392" height="1002" as="geometry" />
        </mxCell>
        <mxCell id="4ycxMJ0RPmdJxaAEptit-4" style="edgeStyle=orthogonalEdgeStyle;rounded=0;orthogonalLoop=1;jettySize=auto;html=1;fontSize=18;" parent="1" source="4ycxMJ0RPmdJxaAEptit-3" target="4ycxMJ0RPmdJxaAEptit-1" edge="1">
          <mxGeometry relative="1" as="geometry" />
        </mxCell>
        <mxCell id="4ycxMJ0RPmdJxaAEptit-3" value="exp_basic&lt;br&gt;&lt;br&gt;__init__&lt;br&gt;&lt;span style=&quot;white-space: pre;&quot;&gt; &lt;/span&gt;_bulid_model()" style="rounded=0;whiteSpace=wrap;html=1;fontSize=18;align=left;" parent="1" vertex="1">
          <mxGeometry x="84" y="114" width="254" height="300" as="geometry" />
        </mxCell>
        <mxCell id="4ycxMJ0RPmdJxaAEptit-5" value="FEDformer&lt;br&gt;&lt;br&gt;Decomp:layers.Autoformer_EncDec.series_decomp/_multi()&lt;br&gt;&lt;br&gt;Embedding:enc_embedding,dec_embedding=layers.Embed&lt;br&gt;.DateEmbedding_wo_pos()&lt;br&gt;encoder_self_att=layers.FourierCorrelation.FourierBlock()&lt;br&gt;decoder_self_att=layers.FourierCorrelation.FourierBlock()&lt;br&gt;decoder_cross_att=layers.FourierCorrelation.FourierCrossAttention()&lt;br&gt;&lt;br&gt;Encoder&lt;br&gt;enc_modes,dec_modes&lt;br&gt;encoder=layers.Autoformer_EncDec.Encoder([EncoderLayer1,&lt;br&gt;EncoderLayer2],norm_layer),都是Autoformer_EncDec的，只有自相关&lt;br&gt;层里面的有encoder_self_att&lt;br&gt;&lt;br&gt;Decoder&lt;br&gt;decoder=layers.Autoformer_EncDec.Decoder([DecoderLayer],&lt;br&gt;norm_layer,projection),自相关层里面用decoder_self_att，decoder_cross_att替换原模型" style="rounded=0;whiteSpace=wrap;html=1;fontSize=18;align=left;" parent="1" vertex="1">
          <mxGeometry x="1060" y="137" width="572" height="637" as="geometry" />
        </mxCell>
      </root>
    </mxGraphModel>
  </diagram>
</mxfile>
